<?xml version="1.0" standalone="no"?>
<!DOCTYPE svg PUBLIC "-//W3C//DTD SVG 20010904//EN"
 "http://www.w3.org/TR/2001/REC-SVG-20010904/DTD/svg10.dtd">
<svg version="1.0" xmlns="http://www.w3.org/2000/svg"
 width="148.000000pt" height="148.000000pt" viewBox="0 0 148.000000 148.000000"
 preserveAspectRatio="xMidYMid meet">
<metadata>
Created by potrace 1.14, written by Peter Selinger 2001-2017
</metadata>
<g transform="translate(0.000000,148.000000) scale(0.100000,-0.100000)"
fill="#000000" stroke="none">
<path d="M675 1378 c-64 -35 -73 -102 -21 -154 28 -28 42 -34 75 -34 115 0
169 108 89 175 -22 19 -41 25 -76 25 -26 0 -56 -6 -67 -12z m48 -39 c-6 -6
-21 -8 -33 -4 l-22 7 23 12 c27 14 50 3 32 -15z"/>
<path d="M388 1317 c-47 -11 -88 -58 -88 -99 0 -21 10 -40 34 -64 30 -30 40
-34 85 -34 42 0 56 5 83 29 84 75 2 197 -114 168z m18 -46 c-4 -6 -17 -11 -28
-11 -21 0 -21 0 -2 19 19 19 42 12 30 -8z"/>
<path d="M1013 1313 c-28 -6 -69 -47 -77 -78 -4 -14 0 -41 8 -60 35 -82 169
-86 211 -5 22 43 19 66 -17 105 -33 36 -76 49 -125 38z m20 -54 c-7 -7 -19 -9
-29 -5 -16 6 -16 8 2 21 22 16 45 2 27 -16z"/>
<path d="M660 1114 c-162 -33 -254 -100 -318 -232 -29 -62 -35 -84 -35 -141 0
-57 6 -79 36 -143 43 -89 102 -147 190 -189 209 -97 481 -23 580 159 31 57 56
154 50 197 -14 114 -88 228 -186 289 -73 45 -237 76 -317 60z m-53 -51 c-9 -2
-14 -9 -11 -15 4 -6 2 -8 -4 -4 -6 3 -32 -5 -57 -20 -54 -30 -72 -26 -23 4 42
26 78 41 98 40 10 0 9 -2 -3 -5z m404 -566 c-10 -9 -11 -8 -5 6 3 10 9 15 12
12 3 -3 0 -11 -7 -18z m-24 -10 c-3 -8 -26 -24 -51 -35 -53 -25 -56 -26 -56
-10 0 6 3 9 6 5 4 -3 13 0 21 8 8 8 23 15 34 15 10 0 19 5 19 11 0 5 5 7 10 4
6 -3 10 2 10 11 0 10 3 15 6 11 4 -3 4 -12 1 -20z m-117 -57 c0 -5 -8 -10 -17
-10 -15 0 -16 2 -3 10 19 12 20 12 20 0z"/>
<path d="M1224 1106 c-91 -41 -83 -155 12 -186 49 -17 107 1 136 41 34 46 33
73 -4 114 -39 42 -94 54 -144 31z m40 -24 c11 -18 -10 -33 -35 -23 -17 7 -19
10 -6 10 9 1 17 6 17 11 0 12 17 13 24 2z"/>
<path d="M130 1097 c-14 -7 -33 -29 -44 -50 -16 -33 -16 -42 -5 -69 17 -41 64
-68 118 -68 79 0 136 85 101 151 -24 43 -116 63 -170 36z m50 -27 c0 -13 -7
-20 -20 -20 -23 0 -25 5 -7 25 17 20 27 18 27 -5z"/>
<path d="M48 824 c-34 -18 -48 -43 -48 -87 0 -99 133 -135 204 -56 23 26 27
38 22 68 -8 53 -54 91 -109 91 -23 -1 -54 -7 -69 -16z m52 -30 c0 -8 -10 -14
-25 -14 -24 0 -24 1 -7 18 19 21 32 19 32 -4z"/>
<path d="M1313 825 c-20 -8 -39 -28 -49 -48 -52 -109 101 -192 193 -105 17 16
23 32 23 62 -1 85 -81 129 -167 91z m47 -30 c0 -10 -10 -15 -27 -15 -26 0 -26
1 -7 15 25 19 34 19 34 0z"/>
<path d="M150 554 c-46 -20 -70 -51 -70 -95 0 -64 69 -109 146 -94 109 20 113
165 6 195 -45 12 -39 12 -82 -6z m33 -39 c-5 -14 -43 -22 -43 -9 0 11 34 33
42 28 4 -3 5 -11 1 -19z"/>
<path d="M1217 547 c-100 -57 -59 -187 60 -187 48 0 96 29 112 68 10 24 10 36
-2 65 -28 66 -106 91 -170 54z m50 -31 c-2 -6 -14 -12 -26 -14 -20 -3 -21 -1
-10 16 13 20 43 19 36 -2z"/>
<path d="M375 350 c-28 -11 -63 -51 -66 -75 -16 -107 142 -165 211 -78 22 29
26 89 7 113 -35 45 -100 62 -152 40z m35 -35 c0 -9 -9 -15 -21 -15 -18 0 -19
2 -9 15 7 8 16 15 21 15 5 0 9 -7 9 -15z"/>
<path d="M995 347 c-40 -18 -55 -38 -62 -81 -20 -126 177 -158 227 -36 31 75
-81 154 -165 117z m45 -24 c-1 -23 -18 -33 -41 -24 -17 7 -19 10 -6 10 9 1 17
6 17 11 0 6 7 10 15 10 8 0 15 -3 15 -7z"/>
<path d="M654 246 c-94 -94 36 -217 154 -146 60 37 65 98 12 151 -24 25 -37
29 -80 29 -46 0 -56 -4 -86 -34z m74 -8 c-3 -7 -15 -15 -28 -16 -21 -3 -22 -2
-11 12 16 19 44 21 39 4z"/>
</g>
</svg>
